<mxfile host="Electron" agent="Mozilla/5.0 (X11; Linux x86_64) AppleWebKit/537.36 (KHTML, like Gecko) draw.io/27.0.9 Chrome/134.0.6998.205 Electron/35.4.0 Safari/537.36" version="27.0.9">
  <diagram id="flow_diagram" name="Página-1">
    <mxGraphModel dx="2528" dy="998" grid="1" gridSize="10" guides="1" tooltips="1" connect="1" arrows="1" fold="1" page="1" pageScale="1" pageWidth="850" pageHeight="1100" math="0" shadow="0">
      <root>
        <mxCell id="0" />
        <mxCell id="1" parent="0" />
        <mxCell id="A" value="Início: Receber Solicitação HTTP POST" style="rounded=1;whiteSpace=wrap;html=1;" parent="1" vertex="1">
          <mxGeometry x="720" y="30" width="200" height="60" as="geometry" />
        </mxCell>
        <mxCell id="B" value="Identificar Contratante" style="rhombus;whiteSpace=wrap;html=1;" parent="1" vertex="1">
          <mxGeometry x="750" y="130" width="140" height="70" as="geometry" />
        </mxCell>
        <mxCell id="A-B" value="" style="endArrow=classic;html=1;entryX=0.5;entryY=0;entryDx=0;entryDy=0;" parent="1" source="A" target="B" edge="1">
          <mxGeometry width="50" height="50" relative="1" as="geometry">
            <mxPoint x="420" y="100" as="sourcePoint" />
            <mxPoint x="420" y="140" as="targetPoint" />
          </mxGeometry>
        </mxCell>
        <mxCell id="B1" value="Caso Especial: Banking + TON_CHATBOT?" style="rhombus;whiteSpace=wrap;html=1;" parent="1" vertex="1">
          <mxGeometry x="50" y="270" width="240" height="150" as="geometry" />
        </mxCell>
        <mxCell id="B-B1-parent" value="" style="endArrow=classic;html=1;exitX=0;exitY=0.5;exitDx=0;exitDy=0;entryX=0.5;entryY=0;entryDx=0;entryDy=0;" parent="1" source="B" target="B1" edge="1">
          <mxGeometry width="50" height="50" relative="1" as="geometry">
            <mxPoint x="350" y="175" as="sourcePoint" />
            <mxPoint x="200" y="270" as="targetPoint" />
            <Array as="points">
              <mxPoint x="200" y="175" />
            </Array>
          </mxGeometry>
        </mxCell>
        <mxCell id="B-B1" value="Role CONTRATANTE" style="edgeLabel;html=1;align=center;verticalAlign=middle;resizable=0;points=[];" parent="B-B1-parent" vertex="1" connectable="0">
          <mxGeometry x="0.1086" y="-3" relative="1" as="geometry">
            <mxPoint x="-53" y="10" as="offset" />
          </mxGeometry>
        </mxCell>
        <mxCell id="B2" value="Pegar Contratante da OS" style="rounded=0;whiteSpace=wrap;html=1;" parent="1" vertex="1">
          <mxGeometry x="-30" y="500" width="160" height="50" as="geometry" />
        </mxCell>
        <mxCell id="B1-B2-parent" value="" style="endArrow=classic;html=1;exitX=0;exitY=1;exitDx=0;exitDy=0;entryX=0.5;entryY=0;entryDx=0;entryDy=0;" parent="1" source="B1" target="B2" edge="1">
          <mxGeometry width="50" height="50" relative="1" as="geometry">
            <mxPoint x="200" y="340" as="sourcePoint" />
            <mxPoint x="200" y="380" as="targetPoint" />
          </mxGeometry>
        </mxCell>
        <mxCell id="B1-B2" value="Sim" style="edgeLabel;html=1;align=center;verticalAlign=middle;resizable=0;points=[];" parent="B1-B2-parent" vertex="1" connectable="0">
          <mxGeometry x="0.0634" y="-2" relative="1" as="geometry">
            <mxPoint x="-1" y="2" as="offset" />
          </mxGeometry>
        </mxCell>
        <mxCell id="B3" value="Pegar Contratante do Usuário Autenticado" style="rounded=0;whiteSpace=wrap;html=1;" parent="1" vertex="1">
          <mxGeometry x="320" y="510" width="180" height="50" as="geometry" />
        </mxCell>
        <mxCell id="B1-B3-parent" value="" style="endArrow=classic;html=1;exitX=1;exitY=1;exitDx=0;exitDy=0;entryX=0.5;entryY=0;entryDx=0;entryDy=0;" parent="1" source="B1" target="B3" edge="1">
          <mxGeometry width="50" height="50" relative="1" as="geometry">
            <mxPoint x="290" y="305" as="sourcePoint" />
            <mxPoint x="390" y="380" as="targetPoint" />
            <Array as="points">
              <mxPoint x="340" y="420" />
            </Array>
          </mxGeometry>
        </mxCell>
        <mxCell id="B1-B3" value="Não" style="edgeLabel;html=1;align=center;verticalAlign=middle;resizable=0;points=[];" parent="B1-B3-parent" vertex="1" connectable="0">
          <mxGeometry x="-0.0714" relative="1" as="geometry">
            <mxPoint x="8" y="-1" as="offset" />
          </mxGeometry>
        </mxCell>
        <mxCell id="B4" value="Pegar Contratante do Payload (ou Padrão STONE PAGAMENTOS)" style="rounded=0;whiteSpace=wrap;html=1;" parent="1" vertex="1">
          <mxGeometry x="575" y="510" width="230" height="50" as="geometry" />
        </mxCell>
        <mxCell id="B-B4-parent" value="" style="endArrow=classic;html=1;exitX=0;exitY=1;exitDx=0;exitDy=0;entryX=0.5;entryY=0;entryDx=0;entryDy=0;" parent="1" source="B" target="B4" edge="1">
          <mxGeometry width="50" height="50" relative="1" as="geometry">
            <mxPoint x="490" y="175" as="sourcePoint" />
            <mxPoint x="625" y="270" as="targetPoint" />
            <Array as="points">
              <mxPoint x="690" y="280" />
            </Array>
          </mxGeometry>
        </mxCell>
        <mxCell id="B-B4" value="Role ADMIN" style="edgeLabel;html=1;align=center;verticalAlign=middle;resizable=0;points=[];" parent="B-B4-parent" vertex="1" connectable="0">
          <mxGeometry x="-0.125" y="-3" relative="1" as="geometry">
            <mxPoint x="10" as="offset" />
          </mxGeometry>
        </mxCell>
        <mxCell id="B5" value="Alias Usuário: MARCOPOLO ou Bot GPS - Fintalk?" style="rhombus;whiteSpace=wrap;html=1;" parent="1" vertex="1">
          <mxGeometry x="850" y="300" width="245" height="150" as="geometry" />
        </mxCell>
        <mxCell id="B-B5-parent" value="" style="endArrow=classic;html=1;entryX=0.5;entryY=0;entryDx=0;entryDy=0;" parent="1" source="B" target="B5" edge="1">
          <mxGeometry width="50" height="50" relative="1" as="geometry">
            <mxPoint x="420" y="210" as="sourcePoint" />
            <mxPoint x="625" y="380" as="targetPoint" />
            <Array as="points">
              <mxPoint x="940" y="240" />
            </Array>
          </mxGeometry>
        </mxCell>
        <mxCell id="B-B5" value="Role OPL" style="edgeLabel;html=1;align=center;verticalAlign=middle;resizable=0;points=[];" parent="B-B5-parent" vertex="1" connectable="0">
          <mxGeometry x="0.1086" y="-3" relative="1" as="geometry">
            <mxPoint x="26" y="-1" as="offset" />
          </mxGeometry>
        </mxCell>
        <mxCell id="B6" value="Definir como STONE PAGAMENTOS" style="rounded=0;whiteSpace=wrap;html=1;" parent="1" vertex="1">
          <mxGeometry x="877.5" y="510" width="190" height="50" as="geometry" />
        </mxCell>
        <mxCell id="B5-B6-parent" value="" style="endArrow=classic;html=1;exitX=0.5;exitY=1;exitDx=0;exitDy=0;entryX=0.5;entryY=0;entryDx=0;entryDy=0;" parent="1" source="B5" target="B6" edge="1">
          <mxGeometry width="50" height="50" relative="1" as="geometry">
            <mxPoint x="625" y="450" as="sourcePoint" />
            <mxPoint x="625" y="490" as="targetPoint" />
          </mxGeometry>
        </mxCell>
        <mxCell id="B5-B6" value="Sim" style="edgeLabel;html=1;align=center;verticalAlign=middle;resizable=0;points=[];" parent="B5-B6-parent" vertex="1" connectable="0">
          <mxGeometry x="0.0634" y="-2" relative="1" as="geometry">
            <mxPoint x="-1" y="2" as="offset" />
          </mxGeometry>
        </mxCell>
        <mxCell id="B7" value="Erro 401 - Não Autorizado" style="rounded=0;whiteSpace=wrap;html=1;fillColor=#f8cecc;strokeColor=#b85450;" parent="1" vertex="1">
          <mxGeometry x="1230" y="510" width="160" height="50" as="geometry" />
        </mxCell>
        <mxCell id="B5-B7-parent" value="" style="endArrow=classic;html=1;exitX=1;exitY=0.5;exitDx=0;exitDy=0;entryX=0;entryY=0.5;entryDx=0;entryDy=0;" parent="1" source="B5" target="B7" edge="1">
          <mxGeometry width="50" height="50" relative="1" as="geometry">
            <mxPoint x="705" y="415" as="sourcePoint" />
            <mxPoint x="830" y="380" as="targetPoint" />
            <Array as="points">
              <mxPoint x="1130" y="450" />
            </Array>
          </mxGeometry>
        </mxCell>
        <mxCell id="B5-B7" value="Não" style="edgeLabel;html=1;align=center;verticalAlign=middle;resizable=0;points=[];" parent="B5-B7-parent" vertex="1" connectable="0">
          <mxGeometry x="-0.0714" relative="1" as="geometry">
            <mxPoint x="8" y="-1" as="offset" />
          </mxGeometry>
        </mxCell>
        <mxCell id="B-B7-parent" value="" style="endArrow=classic;html=1;exitX=1;exitY=0.5;exitDx=0;exitDy=0;entryX=0.5;entryY=0;entryDx=0;entryDy=0;" parent="1" source="B" target="B7" edge="1">
          <mxGeometry width="50" height="50" relative="1" as="geometry">
            <mxPoint x="420" y="210" as="sourcePoint" />
            <mxPoint x="830" y="380" as="targetPoint" />
            <Array as="points">
              <mxPoint x="1240" y="220" />
            </Array>
          </mxGeometry>
        </mxCell>
        <mxCell id="B-B7" value="Outros Roles" style="edgeLabel;html=1;align=center;verticalAlign=middle;resizable=0;points=[];" parent="B-B7-parent" vertex="1" connectable="0">
          <mxGeometry x="0.1086" y="-3" relative="1" as="geometry">
            <mxPoint x="11" y="23" as="offset" />
          </mxGeometry>
        </mxCell>
        <mxCell id="C" value="Adicionar &#39;sistemaDeOrigem&#39; ao Payload" style="rounded=0;whiteSpace=wrap;html=1;" parent="1" vertex="1">
          <mxGeometry x="320" y="600" width="200" height="60" as="geometry" />
        </mxCell>
        <mxCell id="B2-C" value="" style="endArrow=classic;html=1;entryX=0;entryY=0.5;entryDx=0;entryDy=0;exitX=0.402;exitY=0.993;exitDx=0;exitDy=0;exitPerimeter=0;" parent="1" source="B2" target="C" edge="1">
          <mxGeometry width="50" height="50" relative="1" as="geometry">
            <mxPoint x="103.57285714285734" y="600" as="sourcePoint" />
            <mxPoint x="346.43" y="690" as="targetPoint" />
            <Array as="points">
              <mxPoint x="126.43" y="590" />
            </Array>
          </mxGeometry>
        </mxCell>
        <mxCell id="B3-C" value="" style="endArrow=classic;html=1;entryX=0.442;entryY=0.033;entryDx=0;entryDy=0;exitX=0.5;exitY=1;exitDx=0;exitDy=0;entryPerimeter=0;" parent="1" source="B3" target="C" edge="1">
          <mxGeometry width="50" height="50" relative="1" as="geometry">
            <mxPoint x="390" y="430" as="sourcePoint" />
            <mxPoint x="420" y="580" as="targetPoint" />
          </mxGeometry>
        </mxCell>
        <mxCell id="B4-C" value="" style="endArrow=classic;html=1;entryX=1;entryY=0.25;entryDx=0;entryDy=0;" parent="1" source="B4" target="C" edge="1">
          <mxGeometry width="50" height="50" relative="1" as="geometry">
            <mxPoint x="625" y="320" as="sourcePoint" />
            <mxPoint x="420" y="580" as="targetPoint" />
            <Array as="points">
              <mxPoint x="580" y="600" />
            </Array>
          </mxGeometry>
        </mxCell>
        <mxCell id="B6-C" value="" style="endArrow=classic;html=1;entryX=1;entryY=0.5;entryDx=0;entryDy=0;" parent="1" source="B6" target="C" edge="1">
          <mxGeometry width="50" height="50" relative="1" as="geometry">
            <mxPoint x="625" y="540" as="sourcePoint" />
            <mxPoint x="530" y="630" as="targetPoint" />
            <Array as="points">
              <mxPoint x="700" y="630" />
            </Array>
          </mxGeometry>
        </mxCell>
        <mxCell id="D" value="Instanciar Contratante" style="rounded=0;whiteSpace=wrap;html=1;" parent="1" vertex="1">
          <mxGeometry x="305" y="690" width="230" height="60" as="geometry" />
        </mxCell>
        <mxCell id="C-D" value="" style="endArrow=classic;html=1;entryX=0.5;entryY=0;entryDx=0;entryDy=0;" parent="1" source="C" target="D" edge="1">
          <mxGeometry width="50" height="50" relative="1" as="geometry">
            <mxPoint x="420" y="640" as="sourcePoint" />
            <mxPoint x="420" y="690" as="targetPoint" />
          </mxGeometry>
        </mxCell>
        <mxCell id="E" value="Gerar e Validar Pedido Objeto PedidoDeOS" style="rounded=0;whiteSpace=wrap;html=1;" parent="1" vertex="1">
          <mxGeometry x="305" y="800" width="230" height="60" as="geometry" />
        </mxCell>
        <mxCell id="D-E" value="" style="endArrow=classic;html=1;entryX=0.5;entryY=0;entryDx=0;entryDy=0;" parent="1" source="D" target="E" edge="1">
          <mxGeometry width="50" height="50" relative="1" as="geometry">
            <mxPoint x="420" y="750" as="sourcePoint" />
            <mxPoint x="420" y="800" as="targetPoint" />
          </mxGeometry>
        </mxCell>
        <mxCell id="F" value="Formatação e Enriquecimento do Pedido" style="rounded=0;whiteSpace=wrap;html=1;" parent="1" vertex="1">
          <mxGeometry x="110" y="930" width="230" height="60" as="geometry" />
        </mxCell>
        <mxCell id="E-F-parent" value="" style="endArrow=classic;html=1;exitX=0.5;exitY=1;exitDx=0;exitDy=0;entryX=0.5;entryY=0;entryDx=0;entryDy=0;" parent="1" source="E" target="F" edge="1">
          <mxGeometry width="50" height="50" relative="1" as="geometry">
            <mxPoint x="420" y="860" as="sourcePoint" />
            <mxPoint x="420" y="960" as="targetPoint" />
            <Array as="points">
              <mxPoint x="230" y="890" />
            </Array>
          </mxGeometry>
        </mxCell>
        <mxCell id="E-F" value="Validação OK" style="edgeLabel;html=1;align=center;verticalAlign=middle;resizable=0;points=[];" parent="E-F-parent" vertex="1" connectable="0">
          <mxGeometry x="-0.0917" relative="1" as="geometry">
            <mxPoint x="-11" y="2" as="offset" />
          </mxGeometry>
        </mxCell>
        <mxCell id="G" value="Rejeitar Requisição com Erro" style="rounded=0;whiteSpace=wrap;html=1;fillColor=#f8cecc;strokeColor=#b85450;" parent="1" vertex="1">
          <mxGeometry x="1120" y="1640" width="160" height="50" as="geometry" />
        </mxCell>
        <mxCell id="E-G-parent" value="" style="endArrow=classic;html=1;exitX=1;exitY=0.5;exitDx=0;exitDy=0;entryX=0.5;entryY=0;entryDx=0;entryDy=0;" parent="1" source="E" target="G" edge="1">
          <mxGeometry width="50" height="50" relative="1" as="geometry">
            <mxPoint x="535" y="830" as="sourcePoint" />
            <mxPoint x="660" y="880" as="targetPoint" />
            <Array as="points">
              <mxPoint x="660" y="830" />
              <mxPoint x="1050" y="890" />
            </Array>
          </mxGeometry>
        </mxCell>
        <mxCell id="E-G" value="Validação Falha" style="edgeLabel;html=1;align=center;verticalAlign=middle;resizable=0;points=[];" parent="E-G-parent" vertex="1" connectable="0">
          <mxGeometry x="-0.0714" relative="1" as="geometry">
            <mxPoint x="8" y="-1" as="offset" />
          </mxGeometry>
        </mxCell>
        <mxCell id="H" value="Verificar Idempotência do Pedido" style="rhombus;whiteSpace=wrap;html=1;" parent="1" vertex="1">
          <mxGeometry x="115" y="1040" width="220" height="115" as="geometry" />
        </mxCell>
        <mxCell id="F-H" value="" style="endArrow=classic;html=1;entryX=0.5;entryY=0;entryDx=0;entryDy=0;" parent="1" source="F" target="H" edge="1">
          <mxGeometry width="50" height="50" relative="1" as="geometry">
            <mxPoint x="420" y="1020" as="sourcePoint" />
            <mxPoint x="420" y="1080" as="targetPoint" />
          </mxGeometry>
        </mxCell>
        <mxCell id="I" value="Retornar Erro de Duplicidade" style="rounded=0;whiteSpace=wrap;html=1;fillColor=#f8cecc;strokeColor=#b85450;" parent="1" vertex="1">
          <mxGeometry x="907.5" y="1640" width="160" height="50" as="geometry" />
        </mxCell>
        <mxCell id="H-I-parent" value="" style="endArrow=classic;html=1;exitX=1;exitY=0.5;exitDx=0;exitDy=0;entryX=0.5;entryY=0;entryDx=0;entryDy=0;" parent="1" source="H" target="I" edge="1">
          <mxGeometry width="50" height="50" relative="1" as="geometry">
            <mxPoint x="505" y="1115" as="sourcePoint" />
            <mxPoint x="660" y="1095" as="targetPoint" />
            <Array as="points">
              <mxPoint x="470" y="1120" />
            </Array>
          </mxGeometry>
        </mxCell>
        <mxCell id="H-I" value="Pedido Existente e&amp;nbsp;&lt;div&gt;Não Cancelado&lt;/div&gt;" style="edgeLabel;html=1;align=center;verticalAlign=middle;resizable=0;points=[];" parent="H-I-parent" vertex="1" connectable="0">
          <mxGeometry x="-0.0714" relative="1" as="geometry">
            <mxPoint x="-45" y="-16" as="offset" />
          </mxGeometry>
        </mxCell>
        <mxCell id="J" value="Persistir Pedido na Tabela de Requisições de OS" style="rounded=0;whiteSpace=wrap;html=1;" parent="1" vertex="1">
          <mxGeometry x="75" y="1220" width="230" height="60" as="geometry" />
        </mxCell>
        <mxCell id="H-J-parent" value="" style="endArrow=classic;html=1;exitX=0.5;exitY=1;exitDx=0;exitDy=0;entryX=0.5;entryY=0;entryDx=0;entryDy=0;" parent="1" source="H" target="J" edge="1">
          <mxGeometry width="50" height="50" relative="1" as="geometry">
            <mxPoint x="420" y="1150" as="sourcePoint" />
            <mxPoint x="420" y="1200" as="targetPoint" />
          </mxGeometry>
        </mxCell>
        <mxCell id="H-J" value="Não Existente ou Cancelado" style="edgeLabel;html=1;align=center;verticalAlign=middle;resizable=0;points=[];" parent="H-J-parent" vertex="1" connectable="0">
          <mxGeometry x="0.0917" relative="1" as="geometry">
            <mxPoint x="-11" y="-2" as="offset" />
          </mxGeometry>
        </mxCell>
        <mxCell id="K" value="Criar Ordem de Serviço Objeto OrdemDeServico" style="rounded=0;whiteSpace=wrap;html=1;" parent="1" vertex="1">
          <mxGeometry x="75" y="1320" width="230" height="60" as="geometry" />
        </mxCell>
        <mxCell id="J-K" value="" style="endArrow=classic;html=1;entryX=0.5;entryY=0;entryDx=0;entryDy=0;" parent="1" source="J" target="K" edge="1">
          <mxGeometry width="50" height="50" relative="1" as="geometry">
            <mxPoint x="420" y="1260" as="sourcePoint" />
            <mxPoint x="420" y="1310" as="targetPoint" />
          </mxGeometry>
        </mxCell>
        <mxCell id="L" value="Salvar OS no Sistema Externo Workfinity ou Outro" style="rounded=0;whiteSpace=wrap;html=1;" parent="1" vertex="1">
          <mxGeometry x="60" y="1420" width="260" height="60" as="geometry" />
        </mxCell>
        <mxCell id="K-L" value="" style="endArrow=classic;html=1;entryX=0.5;entryY=0;entryDx=0;entryDy=0;" parent="1" source="K" target="L" edge="1">
          <mxGeometry width="50" height="50" relative="1" as="geometry">
            <mxPoint x="420" y="1370" as="sourcePoint" />
            <mxPoint x="420" y="1420" as="targetPoint" />
          </mxGeometry>
        </mxCell>
        <mxCell id="L1" value="Buscar Nome Correto via CEP e Reprocessar" style="rounded=0;whiteSpace=wrap;html=1;" parent="1" vertex="1">
          <mxGeometry x="630" y="1640" width="220" height="50" as="geometry" />
        </mxCell>
        <mxCell id="L-L1-parent" value="" style="endArrow=classic;html=1;exitX=1;exitY=0.5;exitDx=0;exitDy=0;entryX=0.5;entryY=0;entryDx=0;entryDy=0;" parent="1" source="L" target="L1" edge="1">
          <mxGeometry width="50" height="50" relative="1" as="geometry">
            <mxPoint x="550" y="1450" as="sourcePoint" />
            <mxPoint x="690" y="1490" as="targetPoint" />
            <Array as="points">
              <mxPoint x="640" y="1500" />
            </Array>
          </mxGeometry>
        </mxCell>
        <mxCell id="L-L1" value="Erro: Cidade Não Cadastrada" style="edgeLabel;html=1;align=center;verticalAlign=middle;resizable=0;points=[];" parent="L-L1-parent" vertex="1" connectable="0">
          <mxGeometry x="-0.0714" relative="1" as="geometry">
            <mxPoint x="8" y="-1" as="offset" />
          </mxGeometry>
        </mxCell>
        <mxCell id="L1-L" value="" style="endArrow=classic;html=1;entryX=1;entryY=0.25;entryDx=0;entryDy=0;exitX=0.581;exitY=-0.031;exitDx=0;exitDy=0;exitPerimeter=0;" parent="1" source="L1" target="L" edge="1">
          <mxGeometry width="50" height="50" relative="1" as="geometry">
            <mxPoint x="710" y="1630" as="sourcePoint" />
            <mxPoint x="420" y="1480" as="targetPoint" />
            <Array as="points">
              <mxPoint x="740" y="1610" />
              <mxPoint x="650" y="1470" />
            </Array>
          </mxGeometry>
        </mxCell>
        <mxCell id="M" value="Atualizar Pedido com Número da OS Gerada" style="rounded=0;whiteSpace=wrap;html=1;" parent="1" vertex="1">
          <mxGeometry x="-260" y="1635" width="230" height="60" as="geometry" />
        </mxCell>
        <mxCell id="L-M-parent" value="" style="endArrow=classic;html=1;exitX=0;exitY=0.5;exitDx=0;exitDy=0;entryX=0.5;entryY=0;entryDx=0;entryDy=0;" parent="1" source="L" target="M" edge="1">
          <mxGeometry width="50" height="50" relative="1" as="geometry">
            <mxPoint x="420" y="1480" as="sourcePoint" />
            <mxPoint x="420" y="1570" as="targetPoint" />
          </mxGeometry>
        </mxCell>
        <mxCell id="L-M" value="Sucesso" style="edgeLabel;html=1;align=center;verticalAlign=middle;resizable=0;points=[];" parent="L-M-parent" vertex="1" connectable="0">
          <mxGeometry x="-0.0917" relative="1" as="geometry">
            <mxPoint x="-11" y="-2" as="offset" />
          </mxGeometry>
        </mxCell>
        <mxCell id="L-N-parent" value="" style="endArrow=classic;html=1;exitX=0.5;exitY=1;exitDx=0;exitDy=0;entryX=0.5;entryY=0;entryDx=0;entryDy=0;" parent="1" source="L" target="N" edge="1">
          <mxGeometry width="50" height="50" relative="1" as="geometry">
            <mxPoint x="550" y="1450" as="sourcePoint" />
            <mxPoint x="660" y="1570" as="targetPoint" />
            <Array as="points" />
          </mxGeometry>
        </mxCell>
        <mxCell id="L-N" value="Erro" style="edgeLabel;html=1;align=center;verticalAlign=middle;resizable=0;points=[];" parent="L-N-parent" vertex="1" connectable="0">
          <mxGeometry x="-0.0714" relative="1" as="geometry">
            <mxPoint x="8" y="-1" as="offset" />
          </mxGeometry>
        </mxCell>
        <mxCell id="O" value="Retornar Resposta ID do Pedido, Nº da OS, Sucesso" style="rounded=1;whiteSpace=wrap;html=1;" parent="1" vertex="1">
          <mxGeometry x="207" y="1910" width="230" height="60" as="geometry" />
        </mxCell>
        <mxCell id="M-O" value="" style="endArrow=classic;html=1;entryX=0;entryY=0.5;entryDx=0;entryDy=0;" parent="1" source="M" target="O" edge="1">
          <mxGeometry width="50" height="50" relative="1" as="geometry">
            <mxPoint x="322" y="1850" as="sourcePoint" />
            <mxPoint x="322" y="1910" as="targetPoint" />
          </mxGeometry>
        </mxCell>
        <mxCell id="I-O" value="" style="endArrow=classic;html=1;entryX=0.317;entryY=0;entryDx=0;entryDy=0;entryPerimeter=0;" parent="1" source="N" target="O" edge="1">
          <mxGeometry width="50" height="50" relative="1" as="geometry">
            <mxPoint x="660" y="1145" as="sourcePoint" />
            <mxPoint x="420" y="1690" as="targetPoint" />
          </mxGeometry>
        </mxCell>
        <mxCell id="G-O" value="" style="endArrow=classic;html=1;entryX=1;entryY=0.5;entryDx=0;entryDy=0;" parent="1" source="G" target="O" edge="1">
          <mxGeometry width="50" height="50" relative="1" as="geometry">
            <mxPoint x="660" y="930" as="sourcePoint" />
            <mxPoint x="420" y="1690" as="targetPoint" />
            <Array as="points">
              <mxPoint x="830" y="1890" />
            </Array>
          </mxGeometry>
        </mxCell>
        <mxCell id="P" value="Fim" style="rounded=1;whiteSpace=wrap;html=1;" parent="1" vertex="1">
          <mxGeometry x="272" y="2020" width="100" height="50" as="geometry" />
        </mxCell>
        <mxCell id="O-P" value="" style="endArrow=classic;html=1;entryX=0.5;entryY=0;entryDx=0;entryDy=0;" parent="1" source="O" target="P" edge="1">
          <mxGeometry width="50" height="50" relative="1" as="geometry">
            <mxPoint x="322" y="1970" as="sourcePoint" />
            <mxPoint x="322" y="2020" as="targetPoint" />
          </mxGeometry>
        </mxCell>
        <mxCell id="fBqJMMmNgvTYDoBj5htY-43" value="" style="endArrow=classic;html=1;entryX=1;entryY=0.25;entryDx=0;entryDy=0;exitX=0.5;exitY=1;exitDx=0;exitDy=0;" edge="1" parent="1" source="I" target="O">
          <mxGeometry width="50" height="50" relative="1" as="geometry">
            <mxPoint x="1002.4999999999995" y="1752.8571428571427" as="sourcePoint" />
            <mxPoint x="304.99999999999955" y="1709.9999999999995" as="targetPoint" />
            <Array as="points">
              <mxPoint x="780" y="1840" />
            </Array>
          </mxGeometry>
        </mxCell>
        <mxCell id="N" value="Atualizar Pedido com Erro Ocorrido" style="rounded=0;whiteSpace=wrap;html=1;fillColor=#f8cecc;strokeColor=#b85450;" parent="1" vertex="1">
          <mxGeometry x="130" y="1640" width="160" height="50" as="geometry" />
        </mxCell>
      </root>
    </mxGraphModel>
  </diagram>
</mxfile>
